<svg width="100" height="100" viewBox="0 0 100 100" fill="none" xmlns="http://www.w3.org/2000/svg">
<path d="M6 6V93.5H93.5V6H6ZM43.1769 68.8098L35.0869 52.1375L27.2815 68.77H19.6741L30.8693 47.4422L20.0451 25.8755H27.941L35.6044 42.2693L43.2036 25.8357H50.6154L39.7823 46.7656L51.2551 68.8098H43.1767H43.1769ZM77.8623 67.0589C74.5199 68.6507 71.0181 69.3669 67.6757 69.3669C59.0412 69.4067 52.8737 64.0747 52.8737 53.2515C53.1546 42.1643 60.5422 35.9776 70.8989 36.8179V25.8755H77.9816V62.7219C77.9963 67.1162 78.4813 66.6936 77.8623 67.0589V67.0589ZM70.8987 43.0651V62.7615C63.9077 64.5756 60.0424 60.3211 60.0757 52.9332C60.102 45.3565 65.0799 41.4243 70.8987 43.0651Z" fill="white"/>
</svg>
