<svg width="100" height="100" viewBox="0 0 100 100" fill="none" xmlns="http://www.w3.org/2000/svg">
<path fill-rule="evenodd" clip-rule="evenodd" d="M35.4029 24.4584H44.5176L57.6243 68.3692H49.7073L46.4472 55.8613H33.6732L30.3465 68.3694H23.3607L35.4031 26.521V24.4584H35.4029ZM44.6507 49.4079L40.1265 30.8452L35.4694 49.4075H44.6507V49.4079ZM71.1969 35.736H64.0115V68.3694H71.1969V35.7363V35.736ZM67.5115 23.0575C65.1837 23.0575 63.2966 24.9229 63.2966 27.224C63.2966 29.5252 65.1837 31.3907 67.5115 31.3907C69.8393 31.3907 71.7265 29.5254 71.7265 27.2242C71.7265 24.9231 69.8395 23.0575 67.5115 23.0575ZM93.5 93.5H6V6H93.5V93.5Z" fill="white"/>
</svg>
