<svg width="100" height="100" viewBox="0 0 100 100" fill="none" xmlns="http://www.w3.org/2000/svg">
<path d="M65.625 34.375C69.769 34.375 73.7433 32.7288 76.6735 29.7985C79.6038 26.8683 81.25 22.894 81.25 18.75C81.25 14.606 79.6038 10.6317 76.6735 7.70146C73.7433 4.7712 69.769 3.125 65.625 3.125H34.375C30.231 3.125 26.2567 4.7712 23.3265 7.70146C20.3962 10.6317 18.75 14.606 18.75 18.75C18.75 22.894 20.3962 26.8683 23.3265 29.7985C26.2567 32.7288 30.231 34.375 34.375 34.375C30.231 34.375 26.2567 36.0212 23.3265 38.9515C20.3962 41.8817 18.75 45.856 18.75 50C18.75 54.144 20.3962 58.1183 23.3265 61.0485C26.2567 63.9788 30.231 65.625 34.375 65.625C31.2847 65.625 28.2637 66.5414 25.6942 68.2583C23.1247 69.9752 21.122 72.4155 19.9394 75.2706C18.7568 78.1257 18.4473 81.2673 19.0502 84.2983C19.6531 87.3292 21.1413 90.1133 23.3265 92.2985C25.5117 94.4837 28.2958 95.9719 31.3267 96.5748C34.3577 97.1777 37.4993 96.8682 40.3544 95.6856C43.2095 94.503 45.6498 92.5003 47.3667 89.9308C49.0836 87.3613 50 84.3403 50 81.25V34.375H65.625Z" fill="white"/>
<path d="M65.625 65.625C74.2544 65.625 81.25 58.6294 81.25 50C81.25 41.3706 74.2544 34.375 65.625 34.375C56.9956 34.375 50 41.3706 50 50C50 58.6294 56.9956 65.625 65.625 65.625Z" fill="white"/>
</svg>
