<svg width="100" height="100" viewBox="0 0 100 100" fill="none" xmlns="http://www.w3.org/2000/svg">
<path d="M6.25 6.25V93.75H93.75V6.25H6.25ZM53.125 74.2188C53.125 82.7363 48.0937 86.8887 40.8105 86.8887C34.2324 86.8887 30.4141 83.4824 28.4766 79.3711L35.1719 75.3184C36.4629 77.6094 37.4434 79.5469 40.2617 79.5469C42.6055 79.5469 44.5312 78.4902 44.5312 74.3789V46.875H53.125V74.2188ZM72.5293 86.6934C64.8945 86.6934 59.9609 83.248 57.5527 78.4902L64.2578 74.6094C66.0156 77.4883 68.3105 79.4062 72.3633 79.4062C75.7695 79.4062 77.748 77.8984 77.748 75.5488C77.748 72.7305 75.7109 71.7324 71.9512 70.0801L69.8965 69.1973C63.9629 66.6738 60.0293 63.502 60.0293 56.8047C60.0293 50.6387 64.7266 46.1348 72.0684 46.1348C77.2969 46.1348 81.0527 47.7598 83.7578 52.5176L77.3438 56.6406C75.9336 54.1152 74.4141 53.125 72.0586 53.125C69.6504 53.125 68.123 54.6523 68.123 56.6406C68.123 59.1074 69.6504 60.1055 73.1738 61.6328L75.2285 62.5137C82.2188 65.5098 86.1543 68.5684 86.1543 75.4355C86.1562 82.8379 80.3418 86.6934 72.5293 86.6934Z" fill="white"/>
</svg>
