<svg width="150" height="150" viewBox="0 0 150 150" fill="none" xmlns="http://www.w3.org/2000/svg">
<path d="M120.311 52.9453C118.813 52.4336 117.304 51.957 115.784 51.5156C116.036 50.4902 116.269 49.459 116.481 48.4218C119.909 31.7519 117.668 18.3222 110.019 13.9013C102.694 9.65915 90.6826 14.08 78.5654 24.6504C77.374 25.6933 76.207 26.7675 75.0645 27.873C74.3027 27.1386 73.5215 26.4199 72.7207 25.7168C60.0205 14.414 47.291 9.65329 39.6504 14.0888C32.3262 18.3398 30.1494 30.9638 33.2344 46.7636C33.543 48.3261 33.8896 49.8818 34.2744 51.4306C32.5235 51.927 30.7875 52.4741 29.0684 53.0713C14.1973 58.2715 4.6875 66.4248 4.6875 74.8799C4.6875 83.6162 14.8945 92.376 30.4014 97.6875C31.6592 98.1152 32.9287 98.5127 34.21 98.8799C33.7939 100.538 33.4258 102.215 33.1055 103.91C30.1758 119.437 32.4609 131.763 39.7705 135.987C47.3203 140.35 59.9854 135.867 72.3311 125.057C73.3076 124.201 74.2842 123.298 75.2607 122.347C76.4951 123.54 77.7647 124.698 79.0693 125.821C91.0225 136.128 102.826 140.291 110.124 136.055C117.668 131.678 120.12 118.436 116.936 102.325C116.691 101.095 116.41 99.8388 116.092 98.5576C116.982 98.2939 117.854 98.0215 118.708 97.7402C134.821 92.3877 145.318 83.7334 145.318 74.8886C145.312 66.3925 135.498 58.1865 120.311 52.9453V52.9453ZM82.5176 29.1914C92.8975 20.1357 102.601 16.5615 107.024 19.1162C111.732 21.8379 113.563 32.8125 110.604 47.206C110.409 48.1435 110.198 49.0781 109.972 50.0097C103.777 48.6008 97.4957 47.6064 91.1689 47.0332C87.5465 41.815 83.5755 36.8477 79.2832 32.165C80.334 31.1455 81.4102 30.1543 82.5117 29.1914H82.5176ZM46.21 82.1045C47.4814 84.5654 48.8105 86.9961 50.1973 89.3965C51.6094 91.8457 53.0811 94.2588 54.6123 96.6357C50.259 96.1624 45.9329 95.4652 41.6514 94.5468C42.8936 90.5273 44.4229 86.3525 46.21 82.1045V82.1045ZM46.21 67.9453C44.4521 63.7881 42.9639 59.6982 41.7422 55.749C45.7559 54.8496 50.0332 54.1142 54.4922 53.5576C52.998 55.8896 51.5605 58.2558 50.1797 60.6562C48.7988 63.0566 47.4727 65.4863 46.2012 67.9453H46.21ZM49.4033 75.0263C51.2549 71.165 53.249 67.3779 55.3857 63.665C57.5205 59.9541 59.793 56.3281 62.2031 52.7871C66.3867 52.4707 70.6758 52.3037 75.0088 52.3037C79.3418 52.3037 83.6572 52.4707 87.8379 52.79C90.2227 56.3232 92.4814 59.9365 94.6143 63.6299C96.7471 67.3232 98.7676 71.0927 100.676 74.9384C98.793 78.8134 96.7773 82.6162 94.6289 86.3467C92.498 90.0576 90.252 93.6943 87.8906 97.2568C83.7158 97.5498 79.3945 97.7109 75 97.7109C70.6055 97.7109 66.3662 97.5732 62.2676 97.3066C59.8398 93.7539 57.5488 90.1123 55.3945 86.3818C53.2402 82.6513 51.2402 78.8662 49.3945 75.0263H49.4033ZM99.8291 89.3554C101.245 86.8984 102.604 84.4092 103.907 81.8877C105.693 85.9368 107.269 90.075 108.63 94.2861C104.298 95.2616 99.9179 96.0097 95.5078 96.5273C96.9961 94.166 98.4365 91.7754 99.8291 89.3554V89.3554ZM103.849 67.9482C102.552 65.4775 101.203 63.0361 99.8027 60.624C98.4355 58.2451 97.0107 55.8955 95.5283 53.5752C100.014 54.1435 104.317 54.8994 108.352 55.8222C107.055 59.9371 105.552 63.9841 103.849 67.9482V67.9482ZM75.0674 36.4687C77.9928 39.6653 80.7551 43.0074 83.3438 46.4824C77.8066 46.2187 72.2656 46.2187 66.7207 46.4824C69.4541 42.8672 72.252 39.5127 75.0674 36.4687V36.4687ZM42.6738 19.2949C47.3789 16.5644 57.7822 20.4668 68.748 30.2138C69.4482 30.8379 70.1543 31.4912 70.8574 32.1679C66.5431 36.8499 62.544 41.813 58.8867 47.0244C52.574 47.5932 46.3049 48.5718 40.1191 49.9541C39.7617 48.5166 39.4395 47.0693 39.1523 45.6123C36.501 32.0683 38.2559 21.8584 42.6738 19.2949ZM35.8154 93.0791C34.6436 92.7451 33.4863 92.3828 32.3438 91.9922C25.4883 89.6484 19.8252 86.5898 15.9375 83.2588C12.457 80.2734 10.6934 77.2939 10.6934 74.8799C10.6934 69.75 18.3281 63.205 31.0605 58.7666C32.6602 58.2099 34.2734 57.7011 35.9004 57.2402C37.7914 63.3172 40.0815 69.2628 42.7559 75.0381C40.0496 80.8932 37.7311 86.9198 35.8154 93.0791V93.0791ZM68.373 120.521C62.915 125.303 57.4482 128.692 52.6289 130.4C48.2988 131.933 44.8506 131.977 42.7676 130.772C38.332 128.209 36.4863 118.31 39.0029 105.032C39.3018 103.47 39.6436 101.907 40.0283 100.345C46.276 101.691 52.608 102.61 58.9805 103.096C62.6735 108.334 66.7056 113.325 71.0508 118.037C70.1777 118.895 69.2842 119.722 68.373 120.521ZM75.2344 113.719C72.3867 110.64 69.5449 107.232 66.7734 103.57C69.4668 103.676 72.209 103.728 75 103.728C77.8652 103.728 80.7012 103.667 83.4961 103.541C80.9169 107.072 78.1594 110.469 75.2344 113.719V113.719ZM111.715 122.095C110.877 126.618 109.192 129.636 107.109 130.843C102.677 133.415 93.1992 130.072 82.9805 121.257C81.8086 120.249 80.6367 119.168 79.4443 118.034C83.7049 113.304 87.6425 108.293 91.2305 103.034C97.6382 102.491 104.001 101.507 110.273 100.09C110.561 101.25 110.814 102.387 111.035 103.5C112.444 110.619 112.646 117.059 111.715 122.095V122.095ZM116.813 92.0244C116.045 92.2793 115.254 92.5254 114.451 92.7656C112.484 86.66 110.105 80.695 107.329 74.9121C110.001 69.2062 112.287 63.3279 114.173 57.3164C115.611 57.7353 117.009 58.1748 118.354 58.6406C131.367 63.1289 139.307 69.7734 139.307 74.8799C139.307 80.3291 130.731 87.4013 116.813 92.0244V92.0244Z" fill="white"/>
<path d="M75 87.4659C77.4933 87.474 79.933 86.7421 82.01 85.3628C84.0871 83.9835 85.7081 82.0188 86.6679 79.7176C87.6277 77.4164 87.883 74.8822 87.4016 72.4358C86.9202 69.9894 85.7236 67.7409 83.9634 65.9749C82.2032 64.209 79.9586 63.0051 77.5138 62.5157C75.069 62.0263 72.5339 62.2734 70.2296 63.2256C67.9253 64.1779 65.9554 65.7925 64.5693 67.8651C63.1833 69.9377 62.4434 72.3749 62.4434 74.8682C62.4399 76.5201 62.762 78.1565 63.3913 79.6838C64.0206 81.2111 64.9448 82.5994 66.1109 83.7693C67.277 84.9393 68.6623 85.8679 70.1876 86.5022C71.7128 87.1365 73.3481 87.464 75 87.4659Z" fill="white"/>
</svg>
