<svg width="150" height="150" viewBox="0 0 150 150" fill="none" xmlns="http://www.w3.org/2000/svg">
<path d="M37.5 59.961C42.4986 39.9103 55.0014 29.8828 75 29.8828C105 29.8828 108.75 52.4414 123.75 56.2011C133.751 58.7089 142.5 54.9492 150 44.9218C145.001 64.9726 132.499 75 112.5 75C82.5 75 78.75 52.4414 63.75 48.6817C53.7486 46.1739 45 49.9336 37.5 59.961ZM0 105.078C4.99863 85.0274 17.5014 75 37.5 75C67.5 75 71.25 97.5586 86.25 101.318C96.2514 103.826 105 100.066 112.5 90.039C107.501 110.09 94.9986 120.117 75 120.117C45 120.117 41.25 97.5586 26.25 93.7989C16.2486 91.2911 7.5 95.0508 0 105.078Z" fill="white"/>
</svg>
